<?xml version="1.0" encoding="utf-8"?>
<svg xmlns="http://www.w3.org/2000/svg" viewBox="0 0 77 36" width="77" height="36" style="enable-background:new 0 0 77 36;" xml:space="preserve">
	<polygon fill="#636363" points="28,0 28,10.7 34,10.7 38,18 34,25.3 28,25.3 28,36 40,36 50,18 40,0"/>
	<polygon fill="#444444" points="28,10.7 34,10.7 28,0"/>
	<polygon fill="#636363" points="10.5,0 0,18 0,18 10.5,36 23,36 23,25.3 16.7,25.3 12.5,18 16.7,10.7 23,10.7 23,0"/>
	<polygon fill="#444444" points="16.7,25.3 23,36 23,25.3"/>
	<polygon fill="#636363" points="64.5,0 54.2,18 64.5,36 77,36 77,36 66.8,18 77,0 77,0"/>
	<polygon fill="#444444" points="66.8,18 54.2,18 62.2,31.9"/>
	<polygon fill="#FF1E00" points="44,0 54.2,18 44,36 56.5,36 66.8,18 56.5,0"/>
</svg>
