<?xml version="1.0" encoding="UTF-8"?>
<svg width="60px" height="60px" viewBox="0 0 60 60" version="1.1" xmlns="http://www.w3.org/2000/svg" xmlns:xlink="http://www.w3.org/1999/xlink">
    <title>DB</title>
    <g id="DB" stroke="none" stroke-width="1" fill="none" fill-rule="evenodd">
        <path d="M17,44 C17,45.104 16.104,46 15,46 C13.896,46 13,45.104 13,44 C13,42.896 13.896,42 15,42 C16.104,42 17,42.896 17,44 L17,44 Z M17,30 C17,31.104 16.104,32 15,32 C13.896,32 13,31.104 13,30 C13,28.896 13.896,28 15,28 C16.104,28 17,28.896 17,30 L17,30 Z M13,16 C13,14.896 13.896,14 15,14 C16.104,14 17,14.896 17,16 C17,17.104 16.104,18 15,18 C13.896,18 13,17.104 13,16 L13,16 Z M11,48 L49,48 L49,40 L11,40 L11,48 Z M9,50 L51,50 L51,38 L9,38 L9,50 Z M11,34 L49,34 L49,26 L11,26 L11,34 Z M9,36 L51,36 L51,24 L9,24 L9,36 Z M11,20 L49,20 L49,12 L11,12 L11,20 Z M9,22 L51,22 L51,10 L9,10 L9,22 Z" fill="#000000"></path>
    </g>
</svg>