<?xml version="1.0" encoding="UTF-8"?>
<svg width="60px" height="60px" viewBox="0 0 60 60" version="1.1" xmlns="http://www.w3.org/2000/svg" xmlns:xlink="http://www.w3.org/1999/xlink">
    <title>Health</title>
    <g id="Health" stroke="none" stroke-width="1" fill="none" fill-rule="evenodd">
        <path d="M22.995,35.388 C22.995,32.223 25.334,29.596 28.389,29.094 L28.389,41.681 C25.334,41.18 22.995,38.552 22.995,35.388 L22.995,35.388 Z M26.414,8 C26.414,6.346 27.76,5 29.414,5 C31.068,5 32.414,6.346 32.414,8 C32.414,9.655 31.068,11 29.414,11 C27.76,11 26.414,9.655 26.414,8 L26.414,8 Z M12.828,18 L15.828,15 L23.224,15 L26.224,18 L12.828,18 Z M35.828,15 L43.224,15 L46.224,18 L32.828,18 L35.828,15 Z M30.389,41.85 L30.389,29 L30.414,29 L30.414,20 L31.053,20 L51.053,20 L44.053,13 L35,13 L30.414,17.586 L30.414,12.9 C32.696,12.436 34.414,10.419 34.414,8 C34.414,5.239 32.176,3 29.414,3 C26.652,3 24.414,5.239 24.414,8 C24.414,10.419 26.132,12.436 28.414,12.9 L28.414,17.362 L24.053,13 L15,13 L8,20 L28,20 L28.414,20 L28.414,27.069 C24.24,27.576 20.995,31.11 20.995,35.388 C20.995,40.012 24.786,43.775 29.445,43.775 C31.974,43.775 34.033,45.812 34.033,48.316 C34.033,50.496 32.465,52.308 30.389,52.742 L30.389,46 L28.389,46 L28.389,52.957 C26.037,53.448 24.266,55.521 24.266,58 L26.266,58 C26.266,56.633 27.156,55.477 28.389,55.04 L28.389,58 L30.389,58 L30.389,54.781 C33.575,54.325 36.033,51.604 36.033,48.316 C36.033,45.028 33.575,42.307 30.389,41.85 L30.389,41.85 Z M40.414,31 C38.76,31 37.414,29.655 37.414,28 C37.414,26.346 38.76,25 40.414,25 C42.068,25 43.414,26.346 43.414,28 C43.414,29.655 42.068,31 40.414,31 L40.414,31 Z M40.414,23 C37.994,23 35.977,24.719 35.515,27.001 L32.389,27.001 L32.389,29.001 L35.515,29.001 C35.978,31.283 37.995,33 40.414,33 C43.176,33 45.414,30.762 45.414,28 C45.414,25.239 43.176,23 40.414,23 L40.414,23 Z" fill="#000000"></path>
    </g>
</svg>