<?xml version="1.0" encoding="UTF-8"?>
<svg width="60px" height="60px" viewBox="0 0 60 60" version="1.1" xmlns="http://www.w3.org/2000/svg" xmlns:xlink="http://www.w3.org/1999/xlink">
    <title>Manifest</title>
    <g id="Manifest" stroke="none" stroke-width="1" fill="none" fill-rule="evenodd">
        <path d="M55,2 L55,58 L7,58 L7,52 L5,52 L5,50 L7,50 L7,46 L5,46 L5,44 L7,44 L7,40 L5,40 L5,38 L7,38 L7,22 L5,22 L5,20 L7,20 L7,16 L5,16 L5,14 L7,14 L7,10 L5,10 L5,8 L7,8 L7,2 L55,2 Z M53,4 L9,4 L9,8 L13,8 L13,10 L9,10 L9,14 L13,14 L13,16 L9,16 L9,20 L13,20 L13,22 L9,22 L9,38 L13,38 L13,40 L9,40 L9,44 L13,44 L13,46 L9,46 L9,50 L13,50 L13,52 L9,52 L9,56 L53,56 L53,4 Z M23.3489,17.4988 C26.2439,16.4708 29.5189,17.2048 31.6869,19.3728 C33.6314517,21.3183172 34.4237751,24.154108 33.8208492,26.8099795 L33.7509,27.0938 L44.4139,37.7578 L38.7579,43.4138 L28.0939,32.7508 C25.3569,33.4788 22.3879,32.6998 20.3729,30.6868 C18.2748355,28.5887355 17.5188105,25.4558114 18.404815,22.6302789 L18.4989,22.3488 L19.0289,20.8568 L23.9079,25.7368 L26.7359,22.9078 L21.8569,18.0288 L23.3489,17.4988 Z M25.9848249,19.0381203 L25.7039,19.0478 L29.5649,22.9078 L23.9079,28.5648 L20.0479,24.7038 C19.9589,26.3818 20.5729,28.0588 21.7869,29.2728 C23.3517148,30.8376148 25.6852594,31.40373 27.7981415,30.7559439 L28.0409,30.6758 L28.6359,30.4648 L38.7579,40.5858 L41.5859,37.7578 L31.4649,27.6358 L31.6759,27.0408 C32.4469,24.8658 31.8969,22.4118 30.2729,20.7868 C29.1272889,19.6402444 27.574937,19.0208463 25.9848249,19.0381203 L25.9848249,19.0381203 Z" id="Shape" fill="#40403F"></path>
    </g>
</svg>