<?xml version="1.0" encoding="UTF-8"?>
<svg width="60px" height="60px" viewBox="0 0 60 60" version="1.1" xmlns="http://www.w3.org/2000/svg" xmlns:xlink="http://www.w3.org/1999/xlink">
    <title>Devices</title>
    <g id="Devices" stroke="none" stroke-width="1" fill="none" fill-rule="evenodd">
        <path d="M27,35 L31,35 L31,22 L27,22 L27,35 Z M21,35 L25,35 L25,22 L21,22 L21,35 Z M15,35 L19,35 L19,22 L15,22 L15,35 Z M27,20 L33,20 L33,37 L27,37 L25,37 L21,37 L19,37 L13,37 L13,20 L19,20 L21,20 L25,20 L27,20 Z M43.026,53 C44.13,53 45.026,52.104 45.026,51 C45.026,49.896 44.13,49 43.026,49 C41.921,49 41.026,49.896 41.026,51 C41.026,52.104 41.921,53 43.026,53 L43.026,53 Z M37,54 L49,54 L49,34 L37,34 L37,54 Z M35,56 L51,56 L51,32 L35,32 L35,56 Z M11,6 L35,6 L35,30 L37,30 L37,4 L9,4 L9,52 L33,52 L33,50 L11,50 L11,41 L33,41 L33,39 L11,39 L11,6 Z M23.026,11 C24.13,11 25.026,11.896 25.026,13 C25.026,14.104 24.13,15 23.026,15 C21.921,15 21.026,14.104 21.026,13 C21.026,11.896 21.921,11 23.026,11 L23.026,11 Z" fill="#000000"></path>
    </g>
</svg>