<?xml version="1.0" encoding="UTF-8"?>
<svg width="60px" height="60px" viewBox="0 0 60 60" version="1.1" xmlns="http://www.w3.org/2000/svg" xmlns:xlink="http://www.w3.org/1999/xlink">
    <title>Results</title>
    <g id="Results" stroke="none" stroke-width="1" fill="none" fill-rule="evenodd">
        <path d="M50,2 L50,58 L10,58 L10,14 L22,2 L50,2 Z M48,4 L24,4 L24,16 L12,16 L12,56 L48,56 L48,4 Z M24,40 L24,48 L16,48 L16,40 L24,40 Z M34,32 L34,48 L26,48 L26,32 L34,32 Z M44,24 L44,48 L36,48 L36,24 L44,24 Z M22,42 L18,42 L18,46 L22,46 L22,42 Z M32,34 L28,34 L28,46 L32,46 L32,34 Z M42,26 L38,26 L38,46 L42,46 L42,26 Z M22,4.828 L12.828,14 L22,14 L22,4.828 Z" id="Shape" fill="#40403F"></path>
    </g>
</svg>