<?xml version="1.0" encoding="UTF-8"?>
<svg width="100px" height="100px" viewBox="0 0 100 100" version="1.1" xmlns="http://www.w3.org/2000/svg" xmlns:xlink="http://www.w3.org/1999/xlink">
    <title>Manufacturer</title>
    <defs>
        <polygon id="path-1" points="0 100 100 100 100 0 0 0"></polygon>
    </defs>
    <g id="Manufacturer" stroke="none" stroke-width="1" fill="none" fill-rule="evenodd">
        <g id="Group-24">
            <polygon id="Fill-1" fill="#999999" points="51 47.531 60 47.531 60 35 51 35"></polygon>
            <polygon id="Fill-2" fill="#404040" points="51 35 60 35 60 31 51 31"></polygon>
            <polygon id="Fill-3" fill="#E5E5E5" points="63 48 63 85 79 85 79 38"></polygon>
            <polygon id="Fill-4" fill="#2196F3" points="67 60 75 60 75 52 67 52"></polygon>
            <polygon id="Fill-5" fill="#E5E5E5" points="47 48 47 85 63 85 63 38"></polygon>
            <polygon id="Fill-6" fill="#2196F3" points="51 60 59 60 59 52 51 52"></polygon>
            <polygon id="Fill-7" fill="#E5E5E5" points="31 48 31 85 47 85 47 38"></polygon>
            <polygon id="Fill-8" fill="#2196F3" points="35 60 43 60 43 52 35 52"></polygon>
            <polygon id="Fill-9" fill="#EE2B24" points="35 85 59 85 59 68 35 68"></polygon>
            <g id="Group-23">
                <path d="M12.9902,80 L12.9902,80 C8.0252,80 4.0002,75.975 4.0002,71.01 L4.0002,58.99 C4.0002,54.025 8.0252,50 12.9902,50 C17.9562,50 21.9802,54.025 21.9802,58.99 L21.9802,71.01 C21.9802,75.975 17.9562,80 12.9902,80" id="Fill-10" fill="#E5E5E5"></path>
                <mask id="mask-2" fill="white">
                    <use xlink:href="#path-1"></use>
                </mask>
                <g id="Clip-13"></g>
                <polygon id="Fill-12" fill="#E5E5E5" mask="url(#mask-2)" points="7 85 9 85 9 77 7 77"></polygon>
                <polygon id="Fill-14" fill="#E5E5E5" mask="url(#mask-2)" points="17 85 19 85 19 77 17 77"></polygon>
                <polygon id="Fill-15" fill="#999999" mask="url(#mask-2)" points="4 72 21.98 72 21.98 58 4 58"></polygon>
                <polygon id="Fill-16" fill="#404040" mask="url(#mask-2)" points="4 62 21.98 62 21.98 60 4 60"></polygon>
                <polygon id="Fill-17" fill="#404040" mask="url(#mask-2)" points="4 70 21.98 70 21.98 68 4 68"></polygon>
                <polygon id="Fill-18" fill="#999999" mask="url(#mask-2)" points="35 68 59 68 59 65 35 65"></polygon>
                <path d="M31,73 L28.311,73 C27.036,73 26,71.964 26,70.689 L26,66.311 C26,66.14 25.86,66 25.689,66 L21.98,66 L21.98,64 L25.689,64 C26.964,64 28,65.036 28,66.311 L28,70.689 C28,70.86 28.14,71 28.311,71 L31,71 L31,73 Z" id="Fill-19" fill="#999999" mask="url(#mask-2)"></path>
                <path d="M13,50 L13,80 C17.971,80 21.98,75.971 21.98,71 L21.98,59 C21.98,54.029 17.971,50 13,50" id="Fill-20" fill-opacity="0.1" fill="#231F20" mask="url(#mask-2)"></path>
                <path d="M91.3906,12.3135 L91.1426,12.3135 C89.7526,9.0565 86.5216,6.7715 82.7566,6.7715 C81.6526,6.7715 80.5986,6.9785 79.6196,7.3385 C77.5966,4.5695 74.3336,3.0005 70.6426,3.0005 C65.1466,3.0005 60.6036,6.7775 59.7066,12.0005 C56.0026,12.0005 52.9996,15.0025 52.9996,18.7065 L52.9996,31.0005 L57.9996,31.0005 C57.9996,27.6865 60.6866,25.0005 63.9996,25.0005 L91.6576,25.0005 C95.2246,25.0005 98.1046,22.0545 97.9966,18.4615 C97.8956,15.0735 94.7816,12.3135 91.3906,12.3135" id="Fill-21" fill="#E5E5E5" mask="url(#mask-2)"></path>
                <polygon id="Fill-22" mask="url(#mask-2)" points="0 100 100 100 100 0 0 0"></polygon>
            </g>
        </g>
    </g>
</svg>