<?xml version="1.0" encoding="utf-8"?>
<!-- Generator: Adobe Illustrator 25.2.0, SVG Export Plug-In . SVG Version: 6.00 Build 0)  -->
<svg version="1.1" id="Layer_1" xmlns="http://www.w3.org/2000/svg" xmlns:xlink="http://www.w3.org/1999/xlink" x="0px" y="0px"
	 viewBox="0 0 100 100" style="enable-background:new 0 0 100 100;" xml:space="preserve">
<style type="text/css">
	.st0{fill:#E5E5E5;}
	.st1{fill:#999999;}
	.st2{fill:#2196F3;}
	.st3{fill:#EE2B24;}
</style>
<g>
	<rect x="14" y="46" class="st0" width="49" height="31"/>
	<rect x="27.6" y="28" class="st0" width="21.4" height="15"/>
	<rect x="11" y="43" class="st1" width="55" height="3"/>
	<rect x="25" y="25" class="st1" width="27" height="3"/>
	<rect x="63" y="57" class="st1" width="24" height="3"/>
	<path class="st2" d="M37,59h-7v-7h7V59z M47,52h-7v7h7V52z M57,52h-7v7h7V52z M37,62h-7v7h7V62z M47,62h-7v7h7V62z M57,62h-7v7h7
		V62z M27,59h-7v-7h7V59z M27,62h-7v7h7V62z"/>
</g>
<polygon class="st3" points="39.9,33.8 39.9,30.8 36.9,30.8 36.9,33.8 33.9,33.8 33.9,36.8 36.9,36.8 36.9,39.8 39.9,39.8 
	39.9,36.8 42.9,36.8 42.9,33.8 "/>
<path class="st0" d="M85,64H74v1h-2l-2,4c-1.1,0-2,0.9-2,2v4h2h1h1h2h13v-9C87,64.9,86.1,64,85,64z"/>
<circle class="st1" cx="83" cy="75" r="2"/>
<circle class="st1" cx="72" cy="75" r="2"/>
<polygon class="st2" points="70,69 74,69 74,66.1 71.4,66.1 "/>
<rect x="78" y="62" class="st3" width="4" height="2"/>
</svg>
