<?xml version="1.0" encoding="UTF-8"?>
<svg width="103px" height="25px" viewBox="0 0 103 25" version="1.1" xmlns="http://www.w3.org/2000/svg" xmlns:xlink="http://www.w3.org/1999/xlink">
    <title>instedd</title>
    <g id="Screens" stroke="none" stroke-width="1" fill="none" fill-rule="evenodd">
        <g id="Home" transform="translate(-1262.000000, -6474.000000)" fill="#FFFFFF" fill-rule="nonzero">
            <g id="instedd" transform="translate(1262.000000, 6474.000000)">
                <path d="M10.574921,5.89770909 C12.0713383,5.89770909 12.9026812,7.0615892 12.9026812,8.44716076 L12.9026812,10.1652695 C12.9026812,11.6062639 12.0713383,12.7147212 10.574921,12.7147212 L8.76858209,12.7155435 L8.76858209,12.7155435 L8.61284521,12.7214114 L8.61284521,12.7214114 L8.49589552,12.7298606 L8.49589552,12.7298606 L8.3704212,12.7430977 C8.3488925,12.745758 8.32707916,12.7486591 8.30501645,12.7518218 L8.16993003,12.7741016 L8.16993003,12.7741016 L8.03055209,12.8036507 C7.32575575,12.9712239 6.52352464,13.4486178 6.57631093,14.7941663 L6.58447489,14.9316356 L6.58447489,15.20875 C6.4760924,16.5815948 7.21550181,17.1066477 7.91234718,17.3058415 L8.05088492,17.3414902 L8.05088492,17.3414902 L8.18670477,17.3693771 L8.18670477,17.3693771 L8.31822387,17.3904302 L8.31822387,17.3904302 L8.44385936,17.4055774 L8.44385936,17.4055774 L8.56202839,17.4157465 L8.56202839,17.4157465 L8.6711481,17.4218655 L8.6711481,17.4218655 L8.81439771,17.4254796 L8.81439771,17.4254796 L10.574921,17.4256645 C12.0713383,17.4256645 12.9026812,18.5895446 12.9026812,19.9751161 L12.9026812,21.7486477 C12.9026812,23.1896421 12.0713383,24.2980994 10.574921,24.2980994 L8.85681224,24.2980994 C7.36039496,24.3535222 6.14109199,23.1896421 6.14109199,21.7486477 L6.14109199,20.7510362 C6.2338187,19.3601355 5.46466252,18.8311177 4.76611443,18.6352508 L4.6229006,18.5993069 L4.6229006,18.5993069 L4.48353698,18.5718296 L4.48353698,18.5718296 L4.34985881,18.5517784 L4.34985881,18.5517784 L4.22370132,18.5381126 L4.22370132,18.5381126 L4.05258094,18.5273105 L4.05258094,18.5273105 L3.90870531,18.5250224 L3.90870531,18.5250224 L3.74627944,18.53059 L3.74627944,18.53059 L3.70533784,18.5338359 L3.70533784,18.5338359 L2.53860594,18.5341217 C1.20845725,18.5341217 0.1,17.4810873 0.1,16.2063615 L0.1,13.989447 C0.1,12.7147212 1.20845725,11.6616868 2.53860594,11.6616868 L3.71443443,11.6627822 L3.71443443,11.6627822 L3.83860561,11.6694693 L3.83860561,11.6694693 L3.96773231,11.6706677 L3.96773231,11.6706677 L4.07239386,11.6679936 L4.07239386,11.6679936 L4.18957464,11.6612527 L4.18957464,11.6612527 L4.31726685,11.6493408 L4.31726685,11.6493408 L4.45346269,11.6311534 C4.47675909,11.6275379 4.50032614,11.6236149 4.52412203,11.6193614 L4.66930868,11.5896905 C5.38108153,11.4253334 6.21494393,10.9443367 6.15072383,9.58560574 L6.14109199,9.44477228 L6.14109199,8.44716076 C6.14109199,7.00616634 7.36039496,5.89770909 8.85681224,5.89770909 L10.574921,5.89770909 Z M54.8023651,5.95313195 C57.1855482,5.95313195 59.2916169,7.22785779 59.2916169,9.72188659 L58.1277368,9.72188659 C58.072314,7.83750927 56.5204738,6.95074348 54.8023651,6.95074348 C53.1951021,6.95074348 51.7541077,7.56039496 51.7541077,9.38934942 C51.7541077,10.4328281 52.4223453,10.8971676 53.2795328,11.1817742 L53.4804813,11.2444439 C53.514459,11.2544177 53.5486617,11.2641711 53.5830621,11.2737267 L56.5758967,11.9942239 L56.8313891,12.0633363 C56.9157635,12.0872789 56.9992996,12.1121638 57.081852,12.1381017 L57.3264123,12.2191853 C58.6536617,12.6837398 59.6734753,13.4651606 59.7323162,15.0613806 L59.7347504,15.248402 L59.7347504,15.248402 L59.7303694,15.3819611 L59.7303694,15.3819611 L59.7236224,15.4821891 L59.7236224,15.4821891 L59.7130684,15.5904524 L59.7130684,15.5904524 L59.6980681,15.7059664 L59.6980681,15.7059664 L59.677982,15.8279466 L59.677982,15.8279466 L59.652171,15.9556082 C59.6473565,15.977315 59.6422769,15.9992258 59.6369188,16.0213243 L59.6013214,16.1560368 L59.6013214,16.1560368 L59.5584006,16.2944691 C59.5428021,16.341146 59.5258765,16.3883121 59.5075172,16.4358366 L59.4480316,16.5793547 C59.0000336,17.5896768 57.8727917,18.7003903 55.0794794,18.7003903 C52.1974906,18.7003903 50.0914218,17.4256645 50.2022675,14.4328299 L51.3107248,14.4328299 C51.2553019,16.9268587 53.0842564,17.7027788 55.3011708,17.7027788 C56.5758967,17.7027788 58.5156969,16.9822816 58.5156969,15.20875 C58.5156969,14.2010616 57.7828326,13.6330917 56.9566946,13.2916436 L56.7485871,13.2108774 C56.6439318,13.1727305 56.538652,13.1378454 56.4339968,13.1058057 L56.2258892,13.0453969 L56.2258892,13.0453969 L56.0216681,12.9918355 L56.0216681,12.9918355 L53.3059478,12.3267611 C51.8649534,11.9942239 50.5902276,11.2737267 50.5902276,9.38934942 L50.5932825,9.25503886 C50.5943151,9.23206634 50.5956166,9.20881232 50.5971977,9.1852951 L50.6101256,9.04117975 L50.6101256,9.04117975 L50.6302792,8.89162613 C50.6382586,8.84096617 50.6475282,8.78954627 50.6581737,8.73751286 L50.694324,8.57971853 C50.9976987,7.38465359 52.0411189,5.95313195 54.8023651,5.95313195 Z M19.6642704,0.3 C21.1606877,0.3 22.3799906,1.46388011 22.3799906,2.84945167 L22.3799906,3.84706319 C22.2872639,5.23796387 23.0564201,5.76698165 23.7549682,5.96284854 L23.898182,5.99879251 L23.898182,5.99879251 L24.0375457,6.02626981 L24.0375457,6.02626981 L24.1712238,6.04632102 L24.1712238,6.04632102 L24.2973813,6.05998675 L24.2973813,6.05998675 L24.4685017,6.07078886 L24.4685017,6.07078886 L24.6123773,6.073077 L24.6123773,6.073077 L24.7748032,6.0675094 L24.7748032,6.0675094 L24.8185966,6.06397768 L25.9824767,6.06397768 C27.3126254,6.06397768 28.4210826,7.11701206 28.4210826,8.3917379 L28.4210826,10.6086524 C28.4210826,11.8833782 27.3126254,12.9364126 25.9824767,12.9364126 L24.8066482,12.9353172 L24.8066482,12.9353172 L24.682477,12.92863 L24.682477,12.92863 L24.5533503,12.9274316 L24.5533503,12.9274316 L24.4486888,12.9301057 L24.4486888,12.9301057 L24.331508,12.9368466 L24.331508,12.9368466 L24.2038158,12.9487586 L24.2038158,12.9487586 L24.0676199,12.9669459 C24.0443235,12.9705615 24.0207565,12.9744845 23.9969606,12.978738 L23.851774,13.0084089 C23.1400011,13.172766 22.3061387,13.6537627 22.3703588,15.0124936 L22.3799906,15.1533271 L22.3799906,16.1509386 C22.3799906,17.591933 21.1606877,18.7003903 19.6642704,18.7003903 L17.9461617,18.7003903 C16.4497444,18.6449674 15.6184014,17.4810873 15.6184014,16.0955158 L15.6184014,14.377407 C15.6184014,12.9364126 16.4497444,11.8279554 17.9461617,11.8279554 L19.7525005,11.8271331 L19.7525005,11.8271331 L19.9082374,11.8212651 L19.9082374,11.8212651 L20.0251871,11.8128159 L20.0251871,11.8128159 L20.1506614,11.7995789 C20.1721901,11.7969186 20.1940035,11.7940174 20.2160662,11.7908547 L20.3511526,11.7685749 L20.3511526,11.7685749 L20.4905305,11.7390258 C21.1953269,11.5714526 21.997558,11.0940587 21.9447717,9.74851024 L21.9366077,9.61104087 L21.9366077,9.33392655 C22.0449902,7.96108173 21.3055808,7.4360288 20.6087355,7.23683497 L20.4701977,7.20118634 L20.4701977,7.20118634 L20.3343779,7.17329941 L20.3343779,7.17329941 L20.2028588,7.1522463 L20.2028588,7.1522463 L20.0772233,7.13709912 L20.0772233,7.13709912 L19.9590542,7.12693 L19.9590542,7.12693 L19.8499345,7.12081105 L19.8499345,7.12081105 L19.6642704,7.11701206 L17.9461617,7.11701206 C16.4497444,7.11701206 15.6184014,5.95313195 15.6184014,4.5675604 L15.6184014,2.84945167 C15.6184014,1.40845725 16.4497444,0.3 17.9461617,0.3 L19.6642704,0.3 Z M38.2863521,6.28566913 L38.2863521,18.4786988 L35.6260547,18.4786988 L35.6260547,6.28566913 L38.2863521,6.28566913 Z M85.2849394,6.28566913 C88.9428483,6.39651485 90.8826484,8.3917379 90.8826484,12.382184 C90.8826484,16.3726301 88.9428483,18.3678531 85.2849394,18.4786988 L81.0728018,18.4786988 L81.0728018,6.28566913 L85.2849394,6.28566913 Z M96.9791633,6.28566913 C100.637072,6.39651485 102.576872,8.3917379 102.576872,12.382184 C102.576872,16.3726301 100.637072,18.3678531 96.9791633,18.4786988 L92.7670258,18.4786988 L92.7670258,6.28566913 L96.9791633,6.28566913 Z M45.4359014,9.38934942 C47.934364,9.38934942 48.6230706,10.7732805 48.6496195,12.8630163 L48.6504274,18.423276 L46.2118214,18.423276 L46.2118214,13.4352184 C46.2118214,11.9942239 45.7684385,11.2737267 44.6599813,11.2737267 C43.3298326,11.2737267 42.775604,11.9942239 42.775604,13.7677555 L42.775604,18.423276 L40.336998,18.423276 L40.336998,9.61104087 L42.7201811,9.61104087 L42.7201811,10.8303438 C43.3298326,9.83273232 44.382867,9.38934942 45.4359014,9.38934942 Z M69.8773836,6.28566913 L69.8773836,7.28328065 L65.6098232,7.28328065 L65.6098232,18.423276 L64.4459431,18.423276 L64.4459431,7.28328065 L60.1783827,7.28328065 L60.2338056,6.28566913 L69.8773836,6.28566913 Z M79.4101159,6.28566913 L79.4101159,7.28328065 L72.149721,7.28328065 L72.149721,11.6616868 L78.9113102,11.6616868 L78.9113102,12.6592983 L72.149721,12.6592983 L72.149721,17.4810873 L79.4655388,17.4810873 L79.4655388,18.423276 L70.9858409,18.423276 L70.9858409,6.28566913 L79.4101159,6.28566913 Z M84.7307107,7.22785779 L82.2366819,7.22785779 L82.2366819,17.4256645 L84.7307107,17.4256645 C88.2223511,17.4256645 89.7187683,15.98467 89.7187683,12.3267611 C89.7187683,8.72427507 88.2223511,7.22785779 84.7307107,7.22785779 Z M96.4249347,7.22785779 L93.9309059,7.22785779 L93.9309059,17.4256645 L96.4249347,17.4256645 C99.916575,17.4256645 101.412992,15.98467 101.412992,12.3267611 C101.412992,8.72427507 99.916575,7.22785779 96.4249347,7.22785779 Z" id="Shape"></path>
            </g>
        </g>
    </g>
</svg>