<?xml version="1.0" encoding="UTF-8"?>
<svg width="129px" height="28px" viewBox="0 0 129 28" version="1.1" xmlns="http://www.w3.org/2000/svg" xmlns:xlink="http://www.w3.org/1999/xlink">
    <title>manas.tech-white</title>
    <g id="Screens" stroke="none" stroke-width="1" fill="none" fill-rule="evenodd">
        <g id="Home" transform="translate(-1085.000000, -6471.000000)" fill="#FFFFFF" fill-rule="nonzero">
            <g id="manas.tech-white" transform="translate(1085.000000, 6471.000000)">
                <path d="M21.3818182,19.7527273 L19.7527273,19.7527273 L19.7527273,15.68 L19.7527273,15.68 C19.7527273,14.3563636 18.6836364,13.2363636 17.3090909,13.2363636 C15.9854545,13.2363636 14.8654545,14.3054545 14.8654545,15.6290909 L14.8654545,16.4436364 L13.2363636,16.4436364 L13.2363636,15.6290909 C13.2363636,15.6290909 13.2363636,15.6290909 13.2363636,15.6290909 L13.2363636,15.6290909 C13.2363636,15.6290909 13.2363636,15.6290909 13.2363636,15.6290909 C13.2363636,14.3054545 12.1672727,13.1854545 10.7927273,13.1854545 C9.46909091,13.1854545 8.34909091,14.2545455 8.34909091,15.6290909 L8.34909091,15.6290909 L8.34909091,16.4436364 L6.72,16.4436364 L6.72,8.45090909 L8.34909091,8.45090909 L8.34909091,12.5236364 C9.01090909,12.0145455 9.87636364,11.7090909 10.7927273,11.7090909 C12.1163636,11.7090909 13.2872727,12.32 14.0509091,13.3381818 C14.8145455,12.3709091 15.9854545,11.7090909 17.3090909,11.7090909 C19.5490909,11.7090909 21.3818182,13.5418182 21.3818182,15.7818182 L21.3818182,15.7818182 L21.3818182,19.7527273 Z M21.3818182,10.0290909 L17.3090909,10.0290909 L17.3090909,10.0290909 C16.1890909,10.0290909 15.2218182,9.57090909 14.4581818,8.85818182 L15.6290909,7.68727273 C16.0872727,8.09454545 16.6472727,8.34909091 17.3090909,8.34909091 L21.3818182,8.34909091 L21.3818182,10.0290909 Z M14.1018182,1.93454545 C20.8218182,1.93454545 26.2690909,7.38181818 26.2690909,14.1018182 C26.2690909,20.8218182 20.8218182,26.2690909 14.1018182,26.2690909 C7.38181818,26.2690909 1.93454545,20.8218182 1.93454545,14.1018182 C1.93454545,7.38181818 7.38181818,1.93454545 14.1018182,1.93454545 M14.1018182,0.305454545 C6.51636364,0.305454545 0.305454545,6.46545455 0.305454545,14.1018182 C0.305454545,21.6872727 6.46545455,27.8981818 14.1018182,27.8981818 C21.6872727,27.8981818 27.8981818,21.7381818 27.8981818,14.1018182 C27.8981818,6.51636364 21.6872727,0.305454545 14.1018182,0.305454545 L14.1018182,0.305454545 Z M41.5927273,11.0981818 L41.6436364,12.1163636 C42.2545455,11.3527273 43.1709091,10.9454545 44.3418182,10.9454545 C45.5127273,10.9454545 46.48,11.4036364 46.9381818,12.4218182 C47.5490909,11.5563636 48.5163636,10.9454545 49.84,10.9454545 C51.7745455,10.9454545 52.8945455,11.9636364 52.8945455,14.2545455 L52.8945455,20.2618182 L51.3163636,20.2618182 L51.3163636,14.2545455 C51.3163636,12.7272727 50.5527273,12.2690909 49.3818182,12.2690909 C48.1090909,12.2690909 47.3963636,13.1345455 47.2436364,14.2036364 L47.2436364,20.2618182 L45.6654545,20.2618182 L45.6654545,14.2545455 C45.6654545,12.8290909 44.9018182,12.2690909 43.7309091,12.2690909 C42.6109091,12.2690909 41.9490909,12.7781818 41.6436364,13.5927273 L41.6436364,20.2618182 L40.0654545,20.2618182 L40.0654545,11.0981818 L41.5927273,11.0981818 Z M60.9381818,20.2618182 C60.8363636,20.0581818 60.7854545,19.6509091 60.7345455,19.2945455 C60.1236364,19.9054545 59.2581818,20.4145455 58.1381818,20.4145455 C56.2545455,20.4145455 55.0327273,19.2436364 55.0327273,17.7163636 C55.0327273,15.7309091 56.6109091,14.7127273 59.1563636,14.7127273 L60.7345455,14.7127273 L60.7345455,14 C60.7345455,12.9309091 60.0727273,12.2181818 58.8,12.2181818 C57.6290909,12.2181818 56.8145455,12.88 56.8145455,13.6436364 L55.2363636,13.6436364 C55.2363636,12.32 56.6618182,10.9454545 58.8509091,10.9454545 C60.8363636,10.9454545 62.2618182,11.9636364 62.2618182,14 L62.2618182,18.2763636 C62.2618182,18.8872727 62.3636364,19.6509091 62.5672727,20.16 L62.5672727,20.3127273 L60.9381818,20.3127273 L60.9381818,20.2618182 Z M60.6836364,17.7163636 L60.6836364,15.8327273 L59.36,15.8327273 C57.5781818,15.8327273 56.56,16.3927273 56.56,17.5127273 C56.56,18.3781818 57.1709091,19.0909091 58.2909091,19.0909091 C59.4618182,19.04 60.3781818,18.3781818 60.6836364,17.7163636 Z M66.1818182,11.0981818 L66.2327273,12.2690909 C66.8945455,11.4545455 67.8109091,10.9454545 68.9818182,10.9454545 C70.7636364,10.9454545 71.8836364,11.8618182 71.8836364,14.2545455 L71.8836364,20.2618182 L70.3054545,20.2618182 L70.3054545,14.2545455 C70.3054545,12.8290909 69.6436364,12.2690909 68.4727273,12.2690909 C67.4545455,12.2690909 66.6909091,12.88 66.2327273,13.7454545 L66.2327273,20.2618182 L64.6545455,20.2618182 L64.6545455,11.0981818 L66.1818182,11.0981818 Z M79.9272727,20.2618182 C79.8254545,20.0581818 79.7745455,19.6509091 79.7236364,19.2945455 C79.1127273,19.9054545 78.2472727,20.4145455 77.1272727,20.4145455 C75.2436364,20.4145455 74.0218182,19.2436364 74.0218182,17.7163636 C74.0218182,15.7309091 75.6,14.7127273 78.1454545,14.7127273 L79.7236364,14.7127273 L79.7236364,14 C79.7236364,12.9309091 79.0618182,12.2181818 77.7890909,12.2181818 C76.6181818,12.2181818 75.8036364,12.88 75.8036364,13.6436364 L74.2254545,13.6436364 C74.2254545,12.32 75.6509091,10.9454545 77.84,10.9454545 C79.8254545,10.9454545 81.2509091,11.9636364 81.2509091,14 L81.2509091,18.2763636 C81.2509091,18.8872727 81.3527273,19.6509091 81.5563636,20.16 L81.5563636,20.3127273 L79.9272727,20.3127273 L79.9272727,20.2618182 Z M79.6727273,17.7163636 L79.6727273,15.8327273 L78.3490909,15.8327273 C76.5672727,15.8327273 75.5490909,16.3927273 75.5490909,17.5127273 C75.5490909,18.3781818 76.16,19.0909091 77.28,19.0909091 C78.4509091,19.04 79.3163636,18.3781818 79.6727273,17.7163636 Z M86.9018182,16.24 C84.8654545,15.8327273 83.5927273,15.12 83.5927273,13.5927273 C83.5927273,12.1672727 84.9163636,10.8945455 86.9527273,10.8945455 C89.1418182,10.8945455 90.4654545,12.1672727 90.4654545,13.7454545 L88.8872727,13.7454545 C88.8872727,12.9818182 88.2254545,12.1672727 86.9527273,12.1672727 C85.6290909,12.1672727 85.12,12.8290909 85.12,13.4909091 C85.12,14.2036364 85.4763636,14.5090909 87.2581818,14.9163636 C89.4981818,15.4254545 90.5163636,16.1890909 90.5163636,17.6654545 C90.5163636,19.2436364 89.1418182,20.3636364 87.0036364,20.3636364 C84.56,20.3636364 83.2363636,18.8872727 83.2363636,17.36 L84.8145455,17.36 C84.8654545,18.6327273 86.0363636,19.0909091 87.0036364,19.0909091 C88.2763636,19.0909091 88.9890909,18.5309091 88.9890909,17.7672727 C88.9890909,17.1563636 88.6836364,16.6472727 86.9018182,16.24 Z M93.6218182,18.48 C94.2836364,18.48 94.5890909,18.8872727 94.5890909,19.4472727 C94.5890909,19.9563636 94.2327273,20.3636364 93.6218182,20.3636364 C93.0109091,20.3636364 92.6545455,19.9563636 92.6545455,19.4472727 C92.6545455,18.8872727 92.96,18.48 93.6218182,18.48 Z M99.2727273,8.90909091 L99.2727273,11.0981818 L101.003636,11.0981818 L101.003636,12.32 L99.2727273,12.32 L99.2727273,17.9709091 C99.2727273,18.9381818 99.7818182,19.0909091 100.290909,19.0909091 C100.545455,19.0909091 100.850909,19.04 101.054545,18.9890909 L101.054545,20.2618182 C100.8,20.3127273 100.443636,20.4145455 99.8327273,20.4145455 C98.6618182,20.4145455 97.6945455,19.8036364 97.6945455,17.9709091 L97.6945455,12.32 L96.0145455,12.32 L96.0145455,11.0981818 L97.6945455,11.0981818 L97.6945455,8.90909091 L99.2727273,8.90909091 L99.2727273,8.90909091 Z M102.429091,15.9854545 L102.429091,15.6290909 C102.429091,12.6254545 104.363636,10.9454545 106.450909,10.9454545 C109.047273,10.9454545 110.218182,12.88 110.218182,15.4254545 L110.218182,16.1381818 L104.007273,16.1381818 C104.058182,17.8181818 105.076364,19.1418182 106.705455,19.1418182 C107.825455,19.1418182 108.538182,18.6327273 109.098182,17.92 L110.065455,18.6836364 C109.505455,19.6 108.436364,20.4654545 106.603636,20.4654545 C104.058182,20.4145455 102.429091,18.5818182 102.429091,15.9854545 Z M104.058182,14.8654545 L108.64,14.8654545 L108.64,14.7636364 C108.589091,13.5418182 108.029091,12.2690909 106.450909,12.2690909 C105.178182,12.2181818 104.261818,13.1345455 104.058182,14.8654545 Z M117.803636,17.36 L119.28,17.36 C119.178182,18.9890909 117.6,20.4145455 115.665455,20.4145455 C112.916364,20.4145455 111.592727,18.3272727 111.592727,15.8327273 L111.592727,15.4763636 C111.592727,13.0327273 112.916364,10.8945455 115.665455,10.8945455 C117.803636,10.8945455 119.229091,12.32 119.330909,14.2036364 L117.854545,14.2036364 C117.752727,13.0836364 116.938182,12.1672727 115.665455,12.1672727 C113.730909,12.1672727 113.170909,13.8472727 113.170909,15.4254545 L113.170909,15.7818182 C113.170909,17.4109091 113.730909,19.0909091 115.665455,19.0909091 C116.785455,19.1418182 117.701818,18.3781818 117.803636,17.36 Z M122.589091,12.2181818 C123.250909,11.4036364 124.167273,10.9454545 125.287273,10.9454545 C127.069091,10.9454545 128.189091,11.8618182 128.189091,14.2545455 L128.189091,20.2618182 L126.610909,20.2618182 L126.610909,14.2545455 C126.610909,12.8290909 125.949091,12.2690909 124.778182,12.2690909 C123.76,12.2690909 122.996364,12.88 122.538182,13.7454545 L122.538182,20.2618182 L120.96,20.2618182 L120.96,7.28 L122.538182,7.28 L122.538182,12.2181818 L122.589091,12.2181818 Z" id="Shape"></path>
            </g>
        </g>
    </g>
</svg>